<svg width="24" xmlns="http://www.w3.org/2000/svg" height="24" fill="none">
  <g class="frame-children">
    <path
      d="M20 20a2 2 0 0 0 2-2V8a2 2 0 0 0-2-2h-7.9a1.998 1.998 0 0 1-1.69-.9L9.6 3.9c-.37-.562-.997-.9-1.67-.9H4a2 2 0 0 0-2 2v13a2 2 0 0 0 2 2Z"
      style="fill: none;"
      class="fills"
    />
    <g stroke-linecap="round" stroke-linejoin="round" class="strokes">
      <g class="inner-stroke-shape">
        <defs>
          <clipPath id="b">
            <use href="#a"/>
          </clipPath>
          <path
            d="M20 20a2 2 0 0 0 2-2V8a2 2 0 0 0-2-2h-7.9a1.998 1.998 0 0 1-1.69-.9L9.6 3.9c-.37-.562-.997-.9-1.67-.9H4a2 2 0 0 0-2 2v13a2 2 0 0 0 2 2Z"
            id="a"
            style="fill: none; stroke-width: 4; stroke-opacity: 1;"
          />
        </defs>
        <use href="#a" clip-path="url('#b')"/>
      </g>
    </g>
  </g>
</svg>